<svg width="31" height="39" viewBox="0 0 31 39" fill="none" xmlns="http://www.w3.org/2000/svg">
<path d="M10.001 14.0683L9.99762 14.0699L9.99259 14.0733L10.001 14.0683ZM26.6807 13.7549C26.5642 13.6424 26.4348 13.544 26.2953 13.4617C26.0979 13.3454 25.8786 13.2709 25.6512 13.2427C25.4238 13.2145 25.193 13.2333 24.9732 13.2978C24.7533 13.3624 24.549 13.4713 24.3729 13.618C24.1968 13.7646 24.0527 13.9458 23.9494 14.1504C23.3722 15.288 22.5762 16.3005 21.6068 17.1297C21.7554 16.2945 21.8305 15.4478 21.8313 14.5994C21.8345 12.0191 21.1539 9.48404 19.8587 7.25229C18.5636 5.02054 16.7002 3.17184 14.4583 1.89441C14.2112 1.75404 13.9325 1.6788 13.6484 1.67576C13.3643 1.67271 13.084 1.74198 12.834 1.87703C12.584 2.01209 12.3725 2.2085 12.2193 2.4478C12.066 2.6871 11.9762 2.96144 11.9582 3.24502C11.8644 4.83373 11.449 6.38686 10.7373 7.81033C10.0255 9.23379 9.03224 10.498 7.81755 11.5262L7.43215 11.8396C6.16133 12.6946 5.03651 13.7487 4.10089 14.9614C2.64685 16.7931 1.63962 18.9384 1.15908 21.2272C0.678542 23.516 0.737909 25.8852 1.33248 28.147C1.92704 30.4089 3.04046 32.501 4.5844 34.2576C6.12835 36.0142 8.06035 37.3869 10.2272 38.2668C10.4816 38.3704 10.7575 38.4098 11.0308 38.3816C11.304 38.3534 11.5661 38.2585 11.794 38.1053C12.0219 37.952 12.2087 37.745 12.3378 37.5026C12.467 37.2602 12.5345 36.9898 12.5346 36.7151C12.5332 36.5376 12.505 36.3614 12.4508 36.1923C12.0759 34.7831 11.9679 33.3163 12.1324 31.8674C13.7184 34.8577 16.2639 37.2279 19.3597 38.5969C19.7374 38.7658 20.1643 38.7884 20.5578 38.6606C23.0034 37.8711 25.2065 36.4694 26.9579 34.5887C28.7093 32.708 29.9507 30.4107 30.5642 27.9151C31.1777 25.4195 31.143 22.8085 30.4633 20.3302C29.7836 17.8518 28.4815 15.5884 26.6807 13.7549ZM20.1372 35.2556C18.6765 34.5155 17.3879 33.4762 16.3552 32.2053C15.3225 30.9345 14.5689 29.4605 14.1433 27.8792C14.0131 27.3467 13.9124 26.8075 13.8416 26.2639C13.794 25.9177 13.6393 25.5952 13.3992 25.3413C13.1591 25.0874 12.8457 24.9149 12.5028 24.8479C12.3973 24.8275 12.2901 24.8173 12.1827 24.8178C11.8883 24.8175 11.599 24.8948 11.3439 25.0419C11.0889 25.1889 10.8771 25.4006 10.7299 25.6556C9.33982 28.0539 8.64094 30.7903 8.71069 33.5615C7.48771 32.6109 6.46557 31.427 5.70354 30.0784C4.9415 28.7298 4.45473 27.2434 4.27143 25.7053C4.08813 24.1672 4.21195 22.608 4.63571 21.1181C5.05948 19.6282 5.77476 18.2372 6.74009 17.0258C7.47306 16.0738 8.35728 15.2484 9.35751 14.5827C9.40128 14.5546 9.44325 14.5238 9.48318 14.4905C9.48318 14.4905 9.97919 14.08 9.99594 14.0716C12.3841 12.0525 14.0829 9.33858 14.8554 6.30816C16.681 7.99619 17.8981 10.2398 18.3177 12.6905C18.7374 15.1411 18.3361 17.6618 17.1763 19.8611C17.0228 20.1546 16.9597 20.4871 16.9951 20.8164C17.0304 21.1458 17.1626 21.4573 17.3749 21.7116C17.5872 21.9658 17.8701 22.1515 18.1879 22.245C18.5057 22.3386 18.844 22.3359 19.1603 22.2372C21.727 21.4323 23.9855 19.8603 25.6318 17.733C26.6216 19.1946 27.2688 20.8607 27.5251 22.6072C27.7814 24.3537 27.6402 26.1356 27.112 27.8199C26.5838 29.5043 25.6823 31.0477 24.4747 32.3351C23.267 33.6226 21.7843 34.6209 20.1372 35.2556Z" fill="#F5B54C"/>
<path d="M9.16308 12.3926L9.15973 12.3943L9.1547 12.3976L9.16308 12.3926ZM25.8428 12.0792C25.7263 11.9668 25.5969 11.8684 25.4574 11.786C25.26 11.6697 25.0407 11.5952 24.8133 11.567C24.5859 11.5389 24.3551 11.5576 24.1353 11.6222C23.9154 11.6867 23.7111 11.7957 23.535 11.9423C23.3589 12.089 23.2148 12.2702 23.1115 12.4747C22.5344 13.6124 21.7383 14.6248 20.7689 15.4541C20.9175 14.6188 20.9926 13.7722 20.9934 12.9238C20.9966 10.3435 20.316 7.80838 19.0209 5.57663C17.7257 3.34488 15.8623 1.49618 13.6204 0.218755C13.3733 0.0783808 13.0947 0.00313666 12.8105 9.59673e-05C12.5264 -0.00294473 12.2461 0.0663179 11.9961 0.201373C11.7461 0.336428 11.5346 0.532839 11.3814 0.772142C11.2282 1.01144 11.1383 1.28578 11.1203 1.56936C11.0265 3.15807 10.6111 4.7112 9.89937 6.13467C9.18764 7.55814 8.19435 8.8223 6.97966 9.85058L6.59426 10.1639C5.32344 11.0189 4.19862 12.073 3.263 13.2857C1.80896 15.1174 0.801734 17.2628 0.321192 19.5515C-0.159349 21.8403 -0.0999813 24.2096 0.494586 26.4714C1.08915 28.7332 2.20257 30.8254 3.74651 32.582C5.29046 34.3386 7.22246 35.7112 9.3893 36.5911C9.6437 36.6947 9.91965 36.7341 10.1929 36.706C10.4661 36.6778 10.7282 36.5829 10.9561 36.4296C11.184 36.2763 11.3708 36.0694 11.4999 35.827C11.6291 35.5846 11.6967 35.3141 11.6967 35.0395C11.6953 34.862 11.6671 34.6857 11.6129 34.5166C11.238 33.1075 11.13 31.6406 11.2945 30.1917C12.8805 33.1821 15.426 35.5523 18.5218 36.9213C18.8995 37.0901 19.3264 37.1128 19.7199 36.9849C22.1655 36.1954 24.3687 34.7937 26.12 32.913C27.8714 31.0323 29.1128 28.7351 29.7263 26.2395C30.3398 23.7439 30.3051 21.1329 29.6254 18.6545C28.9457 16.1761 27.6436 13.9127 25.8428 12.0792ZM19.2993 33.5799C17.8386 32.8398 16.55 31.8005 15.5173 30.5297C14.4846 29.2588 13.731 27.7848 13.3054 26.2036C13.1752 25.6711 13.0746 25.1318 13.0037 24.5882C12.9561 24.2421 12.8014 23.9195 12.5613 23.6656C12.3212 23.4117 12.0078 23.2392 11.6649 23.1723C11.5594 23.1518 11.4522 23.1417 11.3448 23.1421C11.0504 23.1418 10.7611 23.2191 10.5061 23.3662C10.251 23.5133 10.0392 23.725 9.892 23.9799C8.50193 26.3783 7.80305 29.1147 7.8728 31.8858C6.64982 30.9352 5.62768 29.7513 4.86565 28.4027C4.10361 27.0541 3.61684 25.5677 3.43354 24.0296C3.25024 22.4915 3.37406 20.9323 3.79782 19.4424C4.22159 17.9525 4.93687 16.5616 5.9022 15.3502C6.63517 14.3981 7.51939 13.5728 8.51962 12.907C8.56339 12.879 8.60536 12.8482 8.64529 12.8149C8.64529 12.8149 9.1413 12.4043 9.15805 12.3959C11.5462 10.3768 13.245 7.66292 14.0175 4.63251C15.8431 6.32053 17.0602 8.56409 17.4798 11.0148C17.8995 13.4655 17.4982 15.9862 16.3384 18.1854C16.1849 18.479 16.1218 18.8114 16.1572 19.1408C16.1925 19.4702 16.3247 19.7816 16.537 20.0359C16.7493 20.2902 17.0322 20.4758 17.35 20.5694C17.6678 20.6629 18.0062 20.6602 18.3224 20.5616C20.8891 19.7566 23.1476 18.1847 24.7939 16.0573C25.7837 17.5189 26.4309 19.185 26.6872 20.9316C26.9435 22.6781 26.8023 24.4599 26.2741 26.1443C25.7459 27.8286 24.8444 29.372 23.6368 30.6595C22.4291 31.9469 20.9465 32.9452 19.2993 33.5799Z" fill="#D11515"/>
<path d="M9.67976 13.1646L9.6764 13.1663L9.67138 13.1696L9.67976 13.1646ZM26.3595 12.8512C26.2429 12.7388 26.1136 12.6403 25.9741 12.558C25.7766 12.4417 25.5574 12.3672 25.33 12.339C25.1026 12.3109 24.8718 12.3296 24.6519 12.3942C24.4321 12.4587 24.2278 12.5677 24.0517 12.7143C23.8756 12.8609 23.7314 13.0421 23.6282 13.2467C23.051 14.3844 22.2549 15.3968 21.2855 16.2261C21.4342 15.3908 21.5093 14.5441 21.5101 13.6958C21.5133 11.1155 20.8327 8.58037 19.5375 6.34862C18.2424 4.11688 16.379 2.26817 14.1371 0.990746C13.89 0.850372 13.6113 0.775127 13.3272 0.772087C13.0431 0.769046 12.7628 0.838309 12.5128 0.973364C12.2628 1.10842 12.0513 1.30483 11.898 1.54413C11.7448 1.78343 11.655 2.05777 11.637 2.34135C11.5431 3.93006 11.1278 5.4832 10.416 6.90666C9.70432 8.33012 8.71102 9.59429 7.49634 10.6226L7.11093 10.9359C5.84012 11.7909 4.71529 12.845 3.77967 14.0577C2.32564 15.8894 1.31841 18.0348 0.837869 20.3235C0.357328 22.6123 0.416696 24.9815 1.01126 27.2434C1.60583 29.5052 2.71924 31.5974 4.26319 33.354C5.80713 35.1106 7.73914 36.4832 9.90597 37.3631C10.1604 37.4667 10.4363 37.5061 10.7095 37.4779C10.9828 37.4498 11.2449 37.3549 11.4728 37.2016C11.7007 37.0483 11.8875 36.8414 12.0166 36.599C12.1458 36.3566 12.2133 36.0861 12.2134 35.8115C12.212 35.634 12.1837 35.4577 12.1296 35.2886C11.7547 33.8795 11.6467 32.4126 11.8112 30.9637C13.3972 33.9541 15.9427 36.3243 19.0385 37.6932C19.4162 37.8621 19.8431 37.8848 20.2366 37.7569C22.6822 36.9674 24.8853 35.5657 26.6367 33.685C28.3881 31.8043 29.6295 29.507 30.243 27.0115C30.8565 24.5159 30.8218 21.9049 30.1421 19.4265C29.4624 16.9481 28.1603 14.6847 26.3595 12.8512ZM19.816 34.3519C18.3553 33.6118 17.0667 32.5725 16.034 31.3016C15.0013 30.0308 14.2477 28.5568 13.822 26.9756C13.6919 26.4431 13.5912 25.9038 13.5204 25.3602C13.4727 25.0141 13.318 24.6915 13.078 24.4376C12.8379 24.1837 12.5245 24.0112 12.1816 23.9443C12.0761 23.9238 11.9689 23.9137 11.8615 23.9141C11.5671 23.9138 11.2778 23.9911 11.0227 24.1382C10.7677 24.2853 10.5559 24.497 10.4087 24.7519C9.01861 27.1503 8.31973 29.8866 8.38948 32.6578C7.16649 31.7072 6.14436 30.5233 5.38232 29.1747C4.62029 27.8261 4.13351 26.3397 3.95021 24.8016C3.76691 23.2635 3.89073 21.7043 4.3145 20.2144C4.73826 18.7245 5.45354 17.3336 6.41887 16.1222C7.15185 15.1701 8.03607 14.3448 9.03629 13.679C9.08006 13.6509 9.12204 13.6202 9.16197 13.5869C9.16197 13.5869 9.65797 13.1763 9.67473 13.1679C12.0629 11.1488 13.7617 8.43491 14.5342 5.4045C16.3598 7.09252 17.5769 9.33609 17.9965 11.7868C18.4162 14.2375 18.0149 16.7582 16.855 18.9574C16.7015 19.251 16.6385 19.5834 16.6738 19.9128C16.7092 20.2421 16.8414 20.5536 17.0537 20.8079C17.266 21.0622 17.5489 21.2478 17.8667 21.3414C18.1845 21.4349 18.5228 21.4322 18.839 21.3335C21.4057 20.5286 23.6642 18.9566 25.3105 16.8293C26.3004 18.2909 26.9475 19.957 27.2038 21.7035C27.4601 23.4501 27.3189 25.2319 26.7908 26.9162C26.2626 28.6006 25.3611 30.144 24.1535 31.4315C22.9458 32.7189 21.4631 33.7172 19.816 34.3519Z" fill="#D05F20"/>
</svg>
