<svg width="33" height="44" viewBox="0 0 33 44" fill="none" xmlns="http://www.w3.org/2000/svg">
<path d="M30.9834 40.004H28.9834V36.67C28.9772 35.5255 28.7745 34.3905 28.3843 33.3146C28.3624 33.2558 28.3395 33.2014 28.3125 33.1455C27.9886 32.2623 27.5411 31.4295 26.9834 30.672L24.1836 26.9376C23.4068 25.8973 22.9859 24.6344 22.9834 23.336V21.3164C22.988 19.7263 23.6192 18.202 24.7402 17.0742L26.0547 15.7598C27.5819 14.2243 28.563 12.23 28.8473 10.083C28.8484 10.0552 28.8633 10.032 28.8633 10.0039L28.8577 9.97647C28.9272 9.55062 28.9692 9.12074 28.9834 8.68949V4.00403H30.9834C31.5139 4.00403 32.0226 3.79331 32.3976 3.41824C32.7727 3.04317 32.9834 2.53446 32.9834 2.00403C32.9834 1.4736 32.7727 0.964888 32.3976 0.589815C32.0226 0.214742 31.5139 0.00402832 30.9834 0.00402832H2.98342C2.45299 0.00402832 1.94428 0.214742 1.5692 0.589815C1.19413 0.964888 0.983418 1.4736 0.983418 2.00403C0.983418 2.53446 1.19413 3.04317 1.5692 3.41824C1.94428 3.79331 2.45299 4.00403 2.98342 4.00403H4.98342V8.68949C4.99762 9.12074 5.03963 9.55062 5.10916 9.97647L5.10352 10.004C5.10352 10.032 5.1184 10.0553 5.11952 10.0831C5.40383 12.2301 6.3849 14.2244 7.91212 15.7599L9.22658 17.0743C10.3476 18.2021 10.9788 19.7263 10.9834 21.3164V23.336C10.9808 24.6342 10.5603 25.897 9.78418 26.9376L6.98242 30.6719C6.42491 31.4298 5.97755 32.2629 5.65368 33.1463C5.62708 33.2017 5.60424 33.2555 5.58264 33.3136C5.19235 34.3899 4.98966 35.5252 4.9834 36.67V40.004H2.9834C2.45297 40.004 1.94426 40.2147 1.56918 40.5898C1.19411 40.9649 0.983398 41.4736 0.983398 42.004C0.983398 42.5345 1.19411 43.0432 1.56918 43.4182C1.94426 43.7933 2.45297 44.004 2.9834 44.004H30.9834C31.5138 44.004 32.0225 43.7933 32.3976 43.4182C32.7727 43.0432 32.9834 42.5345 32.9834 42.004C32.9834 41.4736 32.7727 40.9649 32.3976 40.5898C32.0225 40.2147 31.5138 40.004 30.9834 40.004ZM8.9834 8.00403V4.00403H24.9834V8.00403H8.9834ZM10.7402 12.9318C10.4584 12.6487 10.2059 12.3378 9.98646 12.004H23.9803C23.7609 12.3378 23.5084 12.6486 23.2266 12.9318L21.9121 14.2462C20.352 15.7971 19.3517 17.8226 19.0684 20.004H14.8984C14.6151 17.8225 13.6148 15.797 12.0547 14.246L10.7402 12.9318ZM12.9844 29.336C14.1416 27.7854 14.8278 25.9343 14.9609 24.004H19.0059C19.1389 25.9345 19.8255 27.7857 20.9834 29.336L22.9836 32.004H10.9827L12.9844 29.336ZM24.9834 40.004H8.9834V36.67C8.98897 36.4472 9.00714 36.2248 9.03784 36.004H24.929C24.9597 36.2248 24.9778 36.4472 24.9834 36.67V40.004Z" fill="#A9A9A9"/>
</svg>
